<svg width="1440" height="1440" viewBox="0 0 1440 1440" fill="none" xmlns="http://www.w3.org/2000/svg">
  <rect width="1440" height="1440" fill="#F6F1E7"/>
  <g opacity="0.2" stroke="#D8CFC0" stroke-width="1">
    <path d="M0 180H1440M0 360H1440M0 540H1440M0 720H1440M0 900H1440M0 1080H1440M0 1260H1440"/>
    <path d="M180 0V1440M360 0V1440M540 0V1440M720 0V1440M900 0V1440M1080 0V1440M1260 0V1440"/>
  </g>
  <defs>
    <symbol id="athletics" viewBox="0 0 96 96">
      <circle cx="58" cy="16" r="8" fill="currentColor"/>
      <path d="M48 31l-17 15 18 9 15-16 12 8M49 56L34 82M58 52l21 29M31 46l-16-7" stroke="currentColor" stroke-width="7" stroke-linecap="round" stroke-linejoin="round"/>
    </symbol>
    <symbol id="cricket" viewBox="0 0 96 96">
      <path d="M62 9l18 18-44 53a12 12 0 0 1-17-17L62 9zM55 18l22 22" stroke="currentColor" stroke-width="6" stroke-linejoin="round" stroke-linecap="round"/>
      <circle cx="74" cy="76" r="8" stroke="currentColor" stroke-width="6"/>
    </symbol>
    <symbol id="hockey" viewBox="0 0 96 96">
      <path d="M68 10L41 68c-5 12-14 17-27 12M35 79h36c8 0 13 4 14 9H38c-7 0-12-3-16-8" stroke="currentColor" stroke-width="7" stroke-linecap="round" stroke-linejoin="round"/>
      <rect x="70" y="61" width="17" height="7" rx="3.5" fill="currentColor"/>
    </symbol>
    <symbol id="football" viewBox="0 0 96 96">
      <circle cx="48" cy="48" r="33" stroke="currentColor" stroke-width="6"/>
      <path d="M48 25l16 12-6 20H38l-6-20 16-12zM32 37l-15-4M64 37l15-4M38 57l-9 17M58 57l9 17" stroke="currentColor" stroke-width="5" stroke-linecap="round" stroke-linejoin="round"/>
    </symbol>
    <symbol id="basketball" viewBox="0 0 96 96">
      <circle cx="48" cy="48" r="33" stroke="currentColor" stroke-width="6"/>
      <path d="M16 48h64M48 15c10 12 15 23 15 33S58 69 48 81M48 15C38 27 33 38 33 48s5 21 15 33" stroke="currentColor" stroke-width="5" stroke-linecap="round"/>
    </symbol>
    <symbol id="volleyball" viewBox="0 0 96 96">
      <circle cx="48" cy="48" r="33" stroke="currentColor" stroke-width="6"/>
      <path d="M30 20c11 4 19 12 24 25M62 18c-6 12-15 21-28 27M78 50c-13-3-25-2-36 4M62 77c-1-13-6-25-16-34M22 62c9-9 20-15 33-17" stroke="currentColor" stroke-width="5" stroke-linecap="round"/>
    </symbol>
    <symbol id="tennis" viewBox="0 0 96 96">
      <ellipse cx="35" cy="35" rx="19" ry="27" transform="rotate(-36 35 35)" stroke="currentColor" stroke-width="6"/>
      <path d="M49 53l30 30M24 18c17 10 30 24 37 41M13 36c19 1 35 8 49 23" stroke="currentColor" stroke-width="5" stroke-linecap="round"/>
      <circle cx="73" cy="23" r="7" fill="currentColor"/>
    </symbol>
    <symbol id="badminton" viewBox="0 0 96 96">
      <ellipse cx="33" cy="31" rx="17" ry="24" transform="rotate(-42 33 31)" stroke="currentColor" stroke-width="6"/>
      <path d="M47 47l31 31M67 23l15 6-6 15-15-6 6-15zM65 26l14 15M61 38l18-9" stroke="currentColor" stroke-width="5" stroke-linecap="round" stroke-linejoin="round"/>
    </symbol>
    <symbol id="tableTennis" viewBox="0 0 96 96">
      <circle cx="35" cy="34" r="23" stroke="currentColor" stroke-width="6"/>
      <path d="M50 50l27 27M72 19a8 8 0 1 0 0 16 8 8 0 0 0 0-16z" stroke="currentColor" stroke-width="6" stroke-linecap="round"/>
    </symbol>
    <symbol id="swimming" viewBox="0 0 96 96">
      <circle cx="49" cy="24" r="8" fill="currentColor"/>
      <path d="M19 52c8-8 17-8 25 0s17 8 25 0 15-8 23 0M6 72c8-8 17-8 25 0s17 8 25 0 17-8 25 0 8 6 15 1M38 42l18-9 19 14" stroke="currentColor" stroke-width="6" stroke-linecap="round" stroke-linejoin="round"/>
    </symbol>
    <symbol id="cycling" viewBox="0 0 96 96">
      <circle cx="25" cy="67" r="16" stroke="currentColor" stroke-width="6"/>
      <circle cx="72" cy="67" r="16" stroke="currentColor" stroke-width="6"/>
      <path d="M43 67l13-31 16 31H43L29 45h20M57 18h13M54 25l-8-7" stroke="currentColor" stroke-width="6" stroke-linecap="round" stroke-linejoin="round"/>
    </symbol>
    <symbol id="boxing" viewBox="0 0 96 96">
      <path d="M33 17h20c10 0 17 7 17 17v15c0 10-8 18-18 18H34c-10 0-18-8-18-18V34c0-9 7-17 17-17zM25 67v15h34V67M16 43h54" stroke="currentColor" stroke-width="6" stroke-linejoin="round" stroke-linecap="round"/>
    </symbol>
    <symbol id="wrestling" viewBox="0 0 96 96">
      <circle cx="33" cy="20" r="8" fill="currentColor"/>
      <circle cx="61" cy="25" r="8" fill="currentColor"/>
      <path d="M31 34l23 11 18-9M52 45l-9 19-21 8M54 46l19 16 8 20M28 39l-11 14" stroke="currentColor" stroke-width="7" stroke-linecap="round" stroke-linejoin="round"/>
    </symbol>
    <symbol id="weightlifting" viewBox="0 0 96 96">
      <path d="M12 30v36M22 22v52M74 22v52M84 30v36M22 48h52" stroke="currentColor" stroke-width="7" stroke-linecap="round"/>
      <circle cx="48" cy="64" r="8" fill="currentColor"/>
      <path d="M34 82l14-18 14 18" stroke="currentColor" stroke-width="7" stroke-linecap="round" stroke-linejoin="round"/>
    </symbol>
    <symbol id="archery" viewBox="0 0 96 96">
      <path d="M31 11c21 21 21 53 0 74M32 11c-11 23-11 51 0 74M10 48h72M70 38l14 10-14 10" stroke="currentColor" stroke-width="6" stroke-linecap="round" stroke-linejoin="round"/>
    </symbol>
    <symbol id="shooting" viewBox="0 0 96 96">
      <circle cx="48" cy="48" r="34" stroke="currentColor" stroke-width="6"/>
      <circle cx="48" cy="48" r="20" stroke="currentColor" stroke-width="5"/>
      <circle cx="48" cy="48" r="6" fill="currentColor"/>
      <path d="M48 8v16M48 72v16M8 48h16M72 48h16" stroke="currentColor" stroke-width="5" stroke-linecap="round"/>
    </symbol>
    <symbol id="gymnastics" viewBox="0 0 96 96">
      <path d="M24 14v23M72 14v23M24 14h48" stroke="currentColor" stroke-width="6" stroke-linecap="round"/>
      <circle cx="32" cy="52" r="15" stroke="currentColor" stroke-width="6"/>
      <circle cx="64" cy="52" r="15" stroke="currentColor" stroke-width="6"/>
    </symbol>
    <symbol id="baseball" viewBox="0 0 96 96">
      <circle cx="48" cy="48" r="33" stroke="currentColor" stroke-width="6"/>
      <path d="M26 25c11 9 17 21 17 35M70 25c-11 9-17 21-17 35M34 35l8-5M37 46l8-5M40 57l8-5M62 35l-8-5M59 46l-8-5M56 57l-8-5" stroke="currentColor" stroke-width="4" stroke-linecap="round"/>
    </symbol>
    <symbol id="golf" viewBox="0 0 96 96">
      <path d="M35 13v63M36 14l34 11-34 11M25 81h39" stroke="currentColor" stroke-width="6" stroke-linecap="round" stroke-linejoin="round"/>
      <circle cx="72" cy="80" r="5" fill="currentColor"/>
    </symbol>
  </defs>
  <g color="#24324A" opacity="0.13">
    <use href="#athletics" x="36" y="52" width="112" height="112" transform="rotate(-10 92 108)"/>
    <use href="#cricket" x="229" y="32" width="118" height="118" transform="rotate(8 288 91)"/>
    <use href="#hockey" x="442" y="58" width="112" height="112" transform="rotate(-13 498 114)"/>
    <use href="#football" x="662" y="38" width="120" height="120"/>
    <use href="#basketball" x="884" y="54" width="112" height="112" transform="rotate(11 940 110)"/>
    <use href="#volleyball" x="1098" y="42" width="118" height="118" transform="rotate(-7 1157 101)"/>
    <use href="#tennis" x="1280" y="74" width="108" height="108" transform="rotate(16 1334 128)"/>
  </g>
  <g color="#1F5F99" opacity="0.15">
    <use href="#badminton" x="82" y="238" width="116" height="116"/>
    <use href="#tableTennis" x="318" y="256" width="104" height="104" transform="rotate(-12 370 308)"/>
    <use href="#swimming" x="532" y="236" width="124" height="124"/>
    <use href="#cycling" x="746" y="258" width="118" height="118"/>
    <use href="#boxing" x="978" y="246" width="112" height="112" transform="rotate(7 1034 302)"/>
    <use href="#wrestling" x="1206" y="250" width="116" height="116" transform="rotate(-8 1264 308)"/>
  </g>
  <g color="#147A55" opacity="0.14">
    <use href="#weightlifting" x="18" y="470" width="118" height="118"/>
    <use href="#archery" x="238" y="450" width="122" height="122" transform="rotate(-4 299 511)"/>
    <use href="#shooting" x="462" y="468" width="114" height="114"/>
    <use href="#gymnastics" x="688" y="452" width="118" height="118"/>
    <use href="#baseball" x="914" y="464" width="112" height="112" transform="rotate(10 970 520)"/>
    <use href="#golf" x="1134" y="460" width="120" height="120"/>
    <use href="#cricket" x="1302" y="460" width="112" height="112" transform="rotate(-18 1358 516)"/>
  </g>
  <g color="#B97716" opacity="0.13">
    <use href="#football" x="74" y="666" width="116" height="116"/>
    <use href="#basketball" x="290" y="654" width="118" height="118" transform="rotate(-8 349 713)"/>
    <use href="#hockey" x="516" y="666" width="116" height="116" transform="rotate(13 574 724)"/>
    <use href="#tennis" x="738" y="650" width="116" height="116"/>
    <use href="#badminton" x="960" y="664" width="114" height="114" transform="rotate(-14 1017 721)"/>
    <use href="#swimming" x="1182" y="654" width="124" height="124"/>
  </g>
  <g color="#24324A" opacity="0.12">
    <use href="#cycling" x="28" y="884" width="122" height="122" transform="rotate(8 89 945)"/>
    <use href="#boxing" x="250" y="892" width="112" height="112"/>
    <use href="#wrestling" x="474" y="878" width="118" height="118"/>
    <use href="#weightlifting" x="702" y="892" width="116" height="116" transform="rotate(-7 760 950)"/>
    <use href="#archery" x="932" y="882" width="120" height="120"/>
    <use href="#shooting" x="1168" y="886" width="116" height="116" transform="rotate(6 1226 944)"/>
  </g>
  <g color="#1F5F99" opacity="0.12">
    <use href="#gymnastics" x="90" y="1112" width="118" height="118"/>
    <use href="#baseball" x="318" y="1102" width="114" height="114" transform="rotate(-9 375 1159)"/>
    <use href="#golf" x="544" y="1104" width="120" height="120"/>
    <use href="#athletics" x="772" y="1098" width="122" height="122" transform="rotate(12 833 1159)"/>
    <use href="#tableTennis" x="1012" y="1116" width="108" height="108"/>
    <use href="#volleyball" x="1228" y="1098" width="122" height="122" transform="rotate(-10 1289 1159)"/>
  </g>
  <path d="M0 154C182 109 361 120 536 158C731 201 886 193 1051 143C1186 102 1282 105 1440 128V0H0V154Z" fill="#FFFDF8" opacity="0.42"/>
  <path d="M0 1290C166 1334 343 1324 540 1280C728 1238 901 1247 1074 1296C1207 1334 1312 1329 1440 1304V1440H0V1290Z" fill="#EAF2F8" opacity="0.38"/>
</svg>
